<svg width="226" height="40" xmlns="http://www.w3.org/2000/svg">
    <g fill="none" fill-rule="evenodd">
        <path d="M39.93 20c0 11.046-8.938 20-19.965 20C8.94 40 0 31.046 0 20S8.939 0 19.965 0c11.027 0 19.966 8.954 19.966 20zm-28.404-3.33.004-.007a8.974 8.974 0 0 1 10.39-5.199l-.033-.021c.974.208 1.769.505 2.416.679 0 0 .708.23 1.204.208 1.1-.108 1.678-.416 1.91-.522.074.003.06.032.06.054-.206.421-.389 1.032-.4 1.483-.168 2.29 2.787 4.502 1.191 9.747-.184.489-.408.97-.672 1.442-.21.373-.474.711-.724 1.048-1.346 1.809-3.284 3.135-5.38 3.555a8.918 8.918 0 0 1-6.177-.96c-4.087-2.292-5.68-7.311-3.786-11.505.008.007.007.002.001-.009 0 .002-.001.005-.003.007z" fill="#FCD702"/>
        <path d="M81.011 8.75c6.745 0 11.739 5.036 11.739 11.323v.06c0 6.283-5.057 11.38-11.8 11.38-6.744 0-11.738-5.03-11.738-11.318v-.061c0-6.287 5.057-11.384 11.8-11.384zm59.86.44v12.165c0 3.156 1.591 4.656 4.026 4.656 2.465 0 4.059-1.439 4.059-4.504V9.19h6.117v12.13c0 7.037-4.026 10.163-10.236 10.163-6.18 0-10.083-3.157-10.083-10.006V9.19h6.117zm50.013 0v12.165c0 3.156 1.59 4.656 4.026 4.656 2.466 0 4.058-1.439 4.058-4.504V9.19h6.118v12.13c0 7.037-4.026 10.163-10.237 10.163-6.18 0-10.082-3.157-10.082-10.006V9.19h6.117zm-87.705-.374c3.715 0 6.615.998 8.99 2.908l-3.03 4.281c-1.998-1.439-4.182-2.158-6.117-2.158-1.467 0-2.185.597-2.185 1.408v.06c0 1.004.749 1.44 3.809 2.129 4.994 1.094 8.114 2.72 8.114 6.82v.06c0 4.468-3.527 7.128-8.832 7.128-3.872 0-7.524-1.22-10.24-3.627l3.371-4.033c2.185 1.717 4.558 2.624 7.086 2.624 1.654 0 2.528-.562 2.528-1.5v-.06c0-.937-.717-1.409-3.714-2.128-4.65-1.064-8.242-2.376-8.242-6.85v-.06c0-4.064 3.217-7.002 8.462-7.002zm19.674 0c3.716 0 6.616.998 8.99 2.908l-3.029 4.281c-1.998-1.439-4.183-2.158-6.118-2.158-1.466 0-2.184.597-2.184 1.408v.06c0 1.004.748 1.44 3.808 2.129 4.994 1.094 8.115 2.72 8.115 6.82v.06c0 4.468-3.527 7.128-8.833 7.128-3.872 0-7.523-1.22-10.24-3.627l3.372-4.033c2.185 1.717 4.557 2.624 7.086 2.624 1.654 0 2.528-.562 2.528-1.5v-.06c0-.937-.718-1.409-3.715-2.128-4.65-1.064-8.24-2.376-8.24-6.85v-.06c0-4.064 3.215-7.002 8.46-7.002zm93.289 0c3.715 0 6.615.998 8.99 2.908l-3.03 4.281c-1.998-1.439-4.182-2.158-6.117-2.158-1.467 0-2.185.597-2.185 1.408v.06c0 1.004.749 1.44 3.809 2.129 4.994 1.094 8.115 2.72 8.115 6.82v.06c0 4.468-3.528 7.128-8.834 7.128-3.871 0-7.523-1.22-10.239-3.627l3.371-4.033c2.185 1.717 4.557 2.624 7.086 2.624 1.654 0 2.529-.562 2.529-1.5v-.06c0-.937-.718-1.409-3.715-2.128-4.65-1.064-8.242-2.376-8.242-6.85v-.06c0-4.064 3.217-7.002 8.462-7.002zM58.687 9.19c5.493 0 9.05 2.842 9.05 7.66v.061c0 5.193-3.962 7.914-9.364 7.914h-3.027v6.252H49.29V9.19h9.397zm106.006 0 5.212 8.47 5.214-8.47h6.398v21.887h-6.024v-12.57l-5.588 8.567h-.124l-5.556-8.537v12.54h-5.932V9.19h6.4zM80.95 14.22c-3.341 0-5.559 2.69-5.559 5.852v.06c0 3.158 2.281 5.908 5.62 5.908 3.31 0 5.525-2.685 5.525-5.846v-.061c0-3.192-2.248-5.913-5.586-5.913zm-22.732.067h-2.873v5.785h2.903c2.122 0 3.465-1.16 3.465-2.877v-.066c0-1.875-1.343-2.842-3.495-2.842z" fill="#2E2D31"/>
    </g>
</svg>
